<svg width="31" height="33" viewBox="0 0 31 33" fill="none" xmlns="http://www.w3.org/2000/svg">
<path d="M2.84164 33C2.05389 33 1.38335 32.6708 0.830007 32.0124C0.276669 31.354 0 30.5562 0 29.6191V3.38089C0 2.44377 0.276669 1.646 0.830007 0.987582C1.38335 0.329193 2.05389 0 2.84164 0H28.1584C28.9461 0 29.6167 0.329193 30.17 0.987582C30.7233 1.646 31 2.44377 31 3.38089V29.6191C31 30.5562 30.7233 31.354 30.17 32.0124C29.6167 32.6708 28.9461 33 28.1584 33H2.84164ZM2.84514 30.2249H28.1549C28.2831 30.2249 28.4007 30.1614 28.5075 30.0342C28.6144 29.907 28.6678 29.7672 28.6678 29.6146V3.3854C28.6678 3.23283 28.6144 3.09296 28.5075 2.96578C28.4007 2.83863 28.2831 2.77505 28.1549 2.77505H2.84514C2.71689 2.77505 2.59934 2.83863 2.49248 2.96578C2.3856 3.09296 2.33216 3.23283 2.33216 3.3854V29.6146C2.33216 29.7672 2.3856 29.907 2.49248 30.0342C2.59934 30.1614 2.71689 30.2249 2.84514 30.2249ZM5.08919 25.922H12.2541V22.9467H5.08919V25.922ZM19.7509 21.5448L27.0729 12.8322L25.2905 10.7114L19.7509 17.3526L17.3754 14.526L15.6347 16.6469L19.7509 21.5448ZM5.08919 17.9876H12.2541V15.0124H5.08919V17.9876ZM5.08919 10.0533H12.2541V7.07797H5.08919V10.0533Z" fill="#43483E"/>
</svg>
