<svg width="30" height="33" viewBox="0 0 30 33" fill="none" xmlns="http://www.w3.org/2000/svg">
<path d="M3.07354 33C2.22161 33 1.49637 32.6708 0.897803 32.0124C0.299268 31.354 0 30.5562 0 29.6191V3.38089C0 2.44377 0.299268 1.646 0.897803 0.987582C1.49637 0.329193 2.22191 0 3.07444 0H21.6859L30 9.14547V29.6181C30 30.5559 29.7007 31.354 29.1022 32.0124C28.5036 32.6708 27.7784 33 26.9265 33H3.07354ZM3.07764 30.2249H26.9224C27.0842 30.2249 27.2171 30.1677 27.3212 30.0533C27.4252 29.9388 27.4772 29.7926 27.4772 29.6146V10.632H20.3345V2.77505H3.07764C2.9158 2.77505 2.78287 2.83228 2.67885 2.94673C2.5748 3.06115 2.52277 3.20738 2.52277 3.3854V29.6146C2.52277 29.7926 2.5748 29.9388 2.67885 30.0533C2.78287 30.1677 2.9158 30.2249 3.07764 30.2249ZM6.61656 25.1458H23.3834V22.3707H6.61656V25.1458ZM6.61656 10.6293H15V7.85425H6.61656V10.6293ZM6.61656 17.8828H23.3834V15.1077H6.61656V17.8828Z" fill="#43483E"/>
</svg>
