<svg width="21" height="20" viewBox="0 0 21 20" fill="none" xmlns="http://www.w3.org/2000/svg">
<path d="M3.9375 20V17.3333H13.2563C14.6344 17.3333 15.832 16.8889 16.8492 16C17.8664 15.1111 18.375 14 18.375 12.6667C18.375 11.3333 17.8664 10.2222 16.8492 9.33333C15.832 8.44444 14.6344 8 13.2563 8H4.9875L8.4 11.4667L6.5625 13.3333L0 6.66667L6.5625 0L8.4 1.86667L4.9875 5.33333H13.2563C15.3781 5.33333 17.1992 6.03333 18.7195 7.43333C20.2398 8.83333 21 10.5778 21 12.6667C21 14.7556 20.2398 16.5 18.7195 17.9C17.1992 19.3 15.3781 20 13.2563 20H3.9375Z" fill="#2F312D"/>
</svg>
